<svg width="181" height="65" viewBox="0 0 181 65" fill="none" xmlns="http://www.w3.org/2000/svg">
<rect x="1" y="1" width="178.563" height="63" rx="7" fill="black" fill-opacity="0.5"/>
<path d="M21.5017 26.764L23.8282 32.7386L29.7871 30.4171" stroke="white" stroke-width="2" stroke-linecap="round" stroke-linejoin="round"/>
<path d="M33.5632 40.055L32.5632 40.055L32.5632 42.055L33.5632 42.055L33.5632 40.055ZM42.5632 32.005L41.5632 32.005L41.5632 32.0105L42.5632 32.005ZM33.5632 22.945L33.5698 21.945C33.5636 21.945 33.5574 21.945 33.5511 21.945L33.5632 22.945ZM23.5632 32.0772C23.5645 32.6295 24.0132 33.0762 24.5655 33.075C25.1177 33.0737 25.5644 32.625 25.5632 32.0727L23.5632 32.0772ZM33.5632 42.055C34.8811 42.055 36.186 41.7945 37.4028 41.2885L36.6349 39.4418C35.6614 39.8466 34.6175 40.055 33.5632 40.055L33.5632 42.055ZM37.4028 41.2885C38.6197 40.7825 39.7246 40.0409 40.654 39.1064L39.2358 37.6961C38.4924 38.4437 37.6085 39.037 36.6349 39.4418L37.4028 41.2885ZM40.654 39.1064C41.5833 38.172 42.3187 37.063 42.818 35.8433L40.9671 35.0857C40.5677 36.0614 39.9793 36.9485 39.2358 37.6961L40.654 39.1064ZM42.818 35.8433C43.3173 34.6237 43.5705 33.3173 43.5632 31.9994L41.5632 32.0105C41.5691 33.0649 41.3665 34.1099 40.9671 35.0857L42.818 35.8433ZM43.5632 32.005C43.5633 29.3484 42.5126 26.7997 40.6403 24.915L39.2214 26.3245C40.7214 27.8345 41.5632 29.8765 41.5632 32.005L43.5632 32.005ZM40.6403 24.915C38.7681 23.0303 36.2263 21.9626 33.5698 21.945L33.5566 23.945C35.685 23.9591 37.7214 24.8145 39.2214 26.3245L40.6403 24.915ZM33.5511 21.945C30.8871 21.9772 28.3435 23.0596 26.4732 24.9569L27.8975 26.361C29.3979 24.839 31.4383 23.9707 33.5753 23.9449L33.5511 21.945ZM26.4732 24.9569C24.6029 26.8543 23.5572 29.4131 23.5632 32.0772L25.5632 32.0727C25.5583 29.9356 26.3972 27.883 27.8975 26.361L26.4732 24.9569Z" fill="white"/>
<path d="M53.4789 24.7L57.0189 39H59.0189L62.3189 26.74H62.3589L65.6589 39H67.6589L71.1989 24.7H69.2989L66.5789 36.42H66.5389L63.3389 24.7H61.3389L58.1389 36.42H58.0989L55.3789 24.7H53.4789ZM74.0692 39.28C75.7692 39.28 76.9292 38.6 77.5892 37.5H77.6292C77.7292 38.76 78.2692 39.1 79.1492 39.1C79.4292 39.1 79.6692 39.06 79.9292 39V37.88C79.8092 37.9 79.7492 37.9 79.6892 37.9C79.2892 37.9 79.1692 37.5 79.1692 36.7V31.8C79.1692 29.3 77.4492 28.5 75.5492 28.5C72.5492 28.5 71.3092 30 71.2092 31.96H72.8892C72.9892 30.48 73.5492 29.9 75.4892 29.9C77.1692 29.9 77.6092 30.6 77.6092 31.4C77.6092 32.4 76.8092 32.6 75.0692 32.92C72.4292 33.42 70.7092 34.04 70.7092 36.38C70.7092 38.1 72.0092 39.28 74.0692 39.28ZM74.2292 37.88C72.9092 37.88 72.3892 37.3 72.3892 36.3C72.3892 35.12 73.2292 34.66 75.2092 34.24C76.3092 34.02 77.3092 33.76 77.6092 33.44V35.06C77.6092 37.02 76.1492 37.88 74.2292 37.88ZM80.3911 28.8V30.2H81.8911V36.26C81.8911 38.58 82.9311 39.1 84.4311 39.1C84.7911 39.1 85.0311 39.08 85.4911 39V37.64C85.1511 37.68 84.9911 37.7 84.6511 37.7C83.7511 37.7 83.4911 37.42 83.4911 36.34V30.2H85.4911V28.8H83.4911V25.4H81.8911V28.8H80.3911ZM94.1133 32.48H95.7933C95.5533 30.2 93.8333 28.52 91.3133 28.52C88.3333 28.52 86.3733 30.7 86.3733 33.9C86.3733 37.1 88.3333 39.28 91.3133 39.28C93.8333 39.28 95.6533 37.56 95.7933 35.24H94.1133C94.0333 36.46 93.3733 37.88 91.3133 37.88C88.8933 37.88 88.0533 35.82 88.0533 33.9C88.0533 31.98 88.8933 29.92 91.3133 29.92C93.3533 29.92 94.0333 31.36 94.1133 32.48ZM104.298 32.28V39H105.898V31.88C105.898 29.54 104.338 28.52 102.478 28.52C100.738 28.52 99.6578 29.3 99.1178 30.02H99.0778V24.7H97.4778V39H99.0778V32.64C99.0778 31.06 100.278 29.92 102.078 29.92C103.678 29.92 104.298 30.96 104.298 32.28ZM121.215 35.42L122.475 39H124.415L119.095 24.7H117.075L111.795 39H113.655L114.915 35.42H121.215ZM115.515 33.82L118.055 26.36H118.095L120.635 33.82H115.515ZM132.573 38.48C132.573 40.44 131.473 41.26 129.493 41.26C127.673 41.26 126.913 40.48 126.713 39.44H125.033C125.193 41.34 126.653 42.66 129.493 42.66C132.353 42.66 134.173 41.22 134.173 38.32V28.8H132.573V30.06H132.533C131.933 29.28 130.973 28.52 129.293 28.52C126.773 28.52 124.733 30.14 124.733 33.5C124.733 36.86 126.773 38.48 129.293 38.48C130.973 38.48 131.933 37.76 132.533 36.88H132.573V38.48ZM129.493 29.92C131.393 29.92 132.573 31.1 132.573 33.5C132.573 35.9 131.393 37.08 129.493 37.08C127.393 37.08 126.413 35.5 126.413 33.5C126.413 31.5 127.393 29.92 129.493 29.92ZM139.265 39.28C140.965 39.28 142.125 38.6 142.785 37.5H142.825C142.925 38.76 143.465 39.1 144.345 39.1C144.625 39.1 144.865 39.06 145.125 39V37.88C145.005 37.9 144.945 37.9 144.885 37.9C144.485 37.9 144.365 37.5 144.365 36.7V31.8C144.365 29.3 142.645 28.5 140.745 28.5C137.745 28.5 136.505 30 136.405 31.96H138.085C138.185 30.48 138.745 29.9 140.685 29.9C142.365 29.9 142.805 30.6 142.805 31.4C142.805 32.4 142.005 32.6 140.265 32.92C137.625 33.42 135.905 34.04 135.905 36.38C135.905 38.1 137.205 39.28 139.265 39.28ZM139.425 37.88C138.105 37.88 137.585 37.3 137.585 36.3C137.585 35.12 138.425 34.66 140.405 34.24C141.505 34.02 142.505 33.76 142.805 33.44V35.06C142.805 37.02 141.345 37.88 139.425 37.88ZM146.634 24.9V26.82H148.554V24.9H146.634ZM146.794 28.8V39H148.394V28.8H146.794ZM150.7 39H152.3V32.64C152.3 31.06 153.5 29.92 155.3 29.92C156.9 29.92 157.52 30.96 157.52 32.28V39H159.12V31.88C159.12 29.54 157.56 28.52 155.7 28.52C153.96 28.52 152.88 29.3 152.34 30.02H152.3V28.8H150.7V39Z" fill="white"/>
<rect x="1" y="1" width="178.563" height="63" rx="7" stroke="white" stroke-width="2"/>
</svg>
