<svg width="35" height="35" viewBox="0 0 35 35" fill="none" xmlns="http://www.w3.org/2000/svg">
<path fill-rule="evenodd" clip-rule="evenodd" d="M11.5579 20.9303H6.66839C4.6424 20.9303 3 19.2879 3 17.2619C3 15.2359 4.6424 13.5935 6.6684 13.5935H11.5513L19.5075 9V25.52L11.5579 20.9303Z" fill="white"/>
<path d="M23.2422 21.7075C22.8406 21.3059 22.8406 20.6546 23.2422 20.2529L30.0305 13.4647L31.4851 14.9193L24.6969 21.7075C24.2952 22.1092 23.6439 22.1092 23.2422 21.7075Z" fill="white"/>
<path d="M23.2423 14.192C22.8406 14.5937 22.8406 15.245 23.2423 15.6467L30.0305 22.4349L31.4851 20.9803L24.6969 14.192C24.2952 13.7904 23.6439 13.7904 23.2423 14.192Z" fill="white"/>
</svg>
